<svg xmlns="http://www.w3.org/2000/svg"
     viewBox="0 0 642 71"
     width="1284" height="142"
     role="img" aria-labelledby="title desc"
     shape-rendering="geometricPrecision">
  <title id="title">Root Kernel wide logo</title>
  <desc id="desc">Root Kernel symbol and source-matched smooth vector wordmark for dark backgrounds.</desc>
  <g id="symbol" transform="translate(6 6)">
    <path fill="#10C4BE" d="M39.5,0 L0,24 L0,33 L39.5,57 L39.5,44 L14,28.5 L39.5,13 Z"/>
    <rect x="66" y="50" width="52" height="9" fill="#10C4BE"/>
    <path fill="#EDE9E7" d="M144,0 L182.5,24 L182.5,33 L144,57 L144,44 L169.5,28.5 L144,13 Z"/>
  </g>
  <path id="wordmark"
        transform="translate(237 8.595) scale(1.18) translate(-6.390725 -7.501100)"
        fill="#EDE9E7"
        fill-rule="evenodd"
        clip-rule="evenodd"
        d="M60.75000,55.30259C60.57812,55.27366 59.81875,55.15955 59.06250,55.04901C55.97236,54.59731 55.83043,54.55780 53.98673,53.63581C47.38041,50.33214 44.76346,43.90333 45.80336,33.53252C46.46719,26.91228 50.25203,22.21042 56.43498,20.32499C59.08017,19.51837 64.12776,19.33352 66.12500,19.97013C66.57188,20.11257 67.38368,20.34895 67.92901,20.49542C73.22911,21.91896 77.50767,27.41763 78.01019,33.45141C78.21412,35.90012 78.09939,41.72158 77.82939,42.62500C77.71638,43.00312 77.48351,43.92585 77.31189,44.67549C77.13953,45.42840 76.85047,46.29564 76.66610,46.61299C76.48252,46.92897 76.19846,47.45606 76.03485,47.78430C74.37596,51.11231 70.57416,53.95120 66.95182,54.56681C66.32519,54.67330 65.41875,54.86566 64.93750,54.99426C64.09612,55.21910 61.42326,55.41590 60.75000,55.30259ZM97.31250,55.04496C97.10625,55.02154 96.23438,54.94098 95.37500,54.86595C94.11082,54.75557 93.64544,54.65763 92.93750,54.35296C89.25453,52.76799 88.03332,51.80370 85.66040,48.60679C84.93772,47.63315 84.18401,45.88794 83.95603,44.66029C83.85112,44.09533 83.64280,43.36408 83.49310,43.03529C82.98251,41.91384 82.85302,34.80966 83.30564,32.75000C84.00850,29.55154 84.13466,29.11353 84.64057,28.11515C90.61343,16.32817 109.52798,16.77223 114.34433,28.81250C114.83806,30.04676 114.88223,30.26084 115.63391,35.06250C115.84496,36.41070 115.76204,40.36187 115.49627,41.62120C115.35887,42.27223 115.19319,43.27361 115.12810,43.84648C115.04406,44.58607 114.90289,45.09454 114.64118,45.60028C114.43847,45.99200 113.98367,46.90313 113.63053,47.62500C111.71349,51.54365 107.94634,54.12429 103.12500,54.82168C101.21997,55.09723 98.64419,55.19618 97.31250,55.04496ZM308.37500,54.94582C304.27021,54.52452 301.40968,53.23176 298.71715,50.58114C296.88674,48.77921 295.28370,45.72274 295.06884,43.62500C295.02307,43.17813 294.90865,42.36250 294.81457,41.81250C294.36986,39.21264 294.47303,34.83868 295.05989,31.41174C295.87099,26.67540 300.59412,21.30062 304.64240,20.50713C305.07971,20.42142 306.08438,20.18693 306.87500,19.98605C312.36032,18.59237 319.51011,20.61016 322.30313,24.34013C324.63353,27.45229 325.37078,30.34860 325.40223,36.51499L325.41817,39.63865L325.10261,39.95421L324.78705,40.26977L313.14092,40.26375C300.86921,40.25741 300.94147,40.25412 300.79835,40.82437C300.52292,41.92178 301.68813,45.07807 302.89870,46.51373C305.11376,49.14066 310.73554,50.17511 317.50910,49.20216C318.23599,49.09775 319.36099,48.97358 320.00910,48.92623C320.65722,48.87888 321.45677,48.73548 321.78588,48.60757C323.23003,48.04628 323.41625,48.29261 323.51504,50.89495C323.63436,54.03826 323.93179,53.77206 319.47560,54.51031C316.38784,55.02186 311.12691,55.22826 308.37500,54.94582ZM131.62500,54.87204C127.75626,54.33180 124.72927,51.94270 124.17844,48.99474C124.06979,48.41326 123.87507,47.42643 123.74574,46.80180C123.52816,45.75097 123.50923,44.93102 123.49240,35.83098C123.47523,26.54155 123.46167,25.98037 123.24797,25.71668C123.02531,25.44194 122.98228,25.43818 120.53905,25.48037C117.14070,25.53905 117.32721,25.72714 117.54147,22.45745C117.69186,20.16243 117.83100,20.06129 120.69120,20.16793C123.76361,20.28248 123.57007,20.60720 123.51669,15.42754L123.47537,11.41758L123.78677,11.05555C124.09153,10.70124 124.13245,10.69173 125.70534,10.60938C126.58928,10.56310 127.51729,10.46236 127.76758,10.38552C128.05882,10.29610 128.33070,10.28687 128.52272,10.35988C129.17130,10.60646 129.16577,10.56240 129.13632,15.25647L129.10889,19.62813L129.48351,20.00274L129.85813,20.37736L131.08531,20.30980C134.40391,20.12710 139.77247,20.01473 140.05477,20.12206C140.66064,20.35241 140.73465,20.64844 140.72740,22.81250C140.71752,25.76541 141.23890,25.53516 134.64630,25.49799C128.82913,25.46520 129.41789,25.43630 129.24295,25.76318C129.05580,26.11286 129.07598,45.44463 129.26427,46.19240C129.88803,48.66957 132.90155,49.92972 137.18750,49.50563C138.08125,49.41719 139.06567,49.31901 139.37510,49.28745C140.31190,49.19191 140.56212,49.57206 140.52672,51.03707C140.51144,51.66981 140.56210,52.47268 140.63932,52.82124C140.79784,53.53685 140.60044,54.12055 140.11138,54.38229C139.33439,54.79812 133.50483,55.13455 131.62500,54.87204ZM211.95709,54.86673C206.28926,54.46077 201.27955,50.57830 199.70453,45.37112C198.78959,42.34624 198.60235,39.99613 198.85332,34.68750C199.11976,29.05183 201.41435,24.58177 205.37500,21.98274C210.47694,18.63478 219.37093,18.84662 223.97800,22.42583C227.70410,25.32062 229.10778,29.03467 229.21531,36.28339L229.26494,39.62929L228.87953,40.01470L228.49411,40.40012L216.93115,40.32279L205.36818,40.24546L205.05909,40.55455C204.63476,40.97888 204.66493,41.30319 205.30089,43.15324C206.46206,46.53115 208.63985,48.58998 211.50000,49.01372C212.01562,49.09011 212.85938,49.26040 213.37500,49.39214C214.56906,49.69721 217.24137,49.81707 219.06250,49.64722C221.55021,49.41520 224.79808,48.99031 225.62500,48.78870C227.78831,48.26128 227.76108,48.22998 227.76219,51.24546C227.76308,53.65942 227.73357,53.79239 227.14734,54.01527C225.39825,54.68027 216.39757,55.18479 211.95709,54.86673ZM338.13261,54.85416C335.26084,54.44389 332.93268,52.37937 332.15577,49.55412L331.81434,48.31250L331.79539,28.68750C331.77627,8.88159 331.78770,8.35587 332.24668,7.94051C332.64701,7.57821 336.89259,7.58703 337.25647,7.95092C337.50789,8.20233 337.50908,8.29798 337.50235,27.66494C337.49470,49.72396 337.38766,47.51266 338.51779,48.64279C339.37786,49.50286 339.87859,49.65080 341.76893,49.60334L343.39593,49.56250L343.68409,49.89709C343.98609,50.24775 344.02301,53.57213 343.73353,54.34980C343.50125,54.97382 340.72204,55.22408 338.13261,54.85416ZM164.70829,54.75694C163.27018,54.69919 162.95272,54.65135 162.82244,54.47275C162.61849,54.19315 162.49799,37.62913 162.57804,20.87500C162.60940,14.30937 162.63280,8.78595 162.63003,8.60072C162.62727,8.41549 162.76077,8.10612 162.92672,7.91322L163.22844,7.56250L165.45797,7.60011C167.93434,7.64187 168.42418,7.73771 168.67335,8.22916C168.99209,8.85785 168.87938,54.35286 168.55862,54.54221C168.00761,54.86748 167.77880,54.88024 164.70829,54.75694ZM6.83050,54.46686L6.53253,54.16890L6.46037,49.67820C6.34773,42.66834 6.37963,8.97122 6.49941,8.44011C6.69825,7.55850 5.86681,7.62473 17.55070,7.55990L28.14867,7.50109L29.04308,7.80392C29.53501,7.97047 30.41562,8.20166 31.00000,8.31767C35.23146,9.15768 38.66596,11.76769 40.24898,15.34631C42.89149,21.32007 41.69479,29.17695 37.53938,33.13593C35.52825,35.05199 32.52730,36.61217 30.44202,36.82582C29.58561,36.91356 29.12500,37.16474 29.12500,37.54401C29.12500,37.74144 29.08997,37.69249 31.70360,41.14743C32.81245,42.61322 34.71927,45.13437 35.94097,46.75000C37.16267,48.36563 38.47729,50.13750 38.86235,50.68750C39.24740,51.23750 40.05465,52.20481 40.65623,52.83709C42.42684,54.69805 42.36649,54.75021 38.44375,54.74930C35.09845,54.74853 34.64795,54.67846 34.19277,54.08810C34.02288,53.86777 33.53033,53.22194 33.09820,52.65292C32.66606,52.08390 32.14375,51.40205 31.93750,51.13769C31.73125,50.87334 30.74687,49.56822 29.75000,48.23743C28.75313,46.90663 27.35953,45.05724 26.65312,44.12765C22.88208,39.16523 21.78165,37.67468 20.56040,35.87500C20.02389,35.08438 19.45905,34.29688 19.30520,34.12500C17.67831,32.30754 17.94956,31.99300 21.06071,32.08926C29.33681,32.34533 33.78200,30.57957 34.87146,26.60322C35.53499,24.18145 35.63579,22.22237 35.18516,20.50660C35.01457,19.85711 34.87500,19.17382 34.87500,18.98819C34.87500,18.15000 34.56200,17.28700 33.97500,16.46500C33.38900,15.64500 32.55100,14.92300 31.53900,14.35800C30.60300,13.83600 29.57200,13.51000 28.50000,13.43200C28.03500,13.39800 25.60300,13.40900 21.25000,13.40750C17.50312,13.39101 14.16546,13.36288 13.83296,13.34500C13.30486,13.31661 13.19023,13.35689 12.92641,13.66357L12.62441,14.01463L12.60439,32.78857C12.59338,43.11423 12.59796,52.12508 12.61457,52.81268C12.65998,54.69290 12.68661,54.67625 9.55447,54.72616C7.14106,54.76462 7.12691,54.76328 6.83050,54.46686ZM191.14851,54.66464C191.05832,54.62854 190.35160,53.80329 189.57803,52.83075C188.80445,51.85821 187.55637,50.36880 186.80452,49.52094C185.37988,47.91440 185.02750,47.49055 181.01940,42.56250C178.63768,39.63411 177.05602,37.77755 175.10916,35.62500C173.87473,34.26014 172.27876,32.28755 172.04366,31.83610C171.76406,31.29919 172.00182,30.78683 173.16758,29.41412C174.36488,28.00426 176.70950,25.10843 178.15836,23.25000C180.63568,20.07240 183.20495,16.87608 185.18077,14.51374C186.35322,13.11192 187.98750,11.14858 188.81250,10.15075C190.92844,7.59156 190.42413,7.81638 194.10289,7.79237C195.79943,7.78130 197.28594,7.79915 197.40625,7.83204C197.89466,7.96557 197.58845,8.88665 196.81017,9.62500C196.55654,9.86562 195.72544,10.82188 194.96328,11.75000C194.20112,12.67812 193.17593,13.88750 192.68508,14.43750C192.19422,14.98750 191.03081,16.39375 190.09972,17.56250C189.16862,18.73125 187.46924,20.81250 186.32332,22.18750C185.17740,23.56250 183.47817,25.62888 182.54725,26.77947C181.61634,27.93005 180.45613,29.29820 179.96901,29.81980C178.85561,31.01202 178.83112,31.22506 179.70079,32.15339C180.04039,32.51590 180.67998,33.26250 181.12209,33.81250C182.18857,35.13923 183.06528,36.16288 184.50000,37.75658C185.15312,38.48208 186.39382,39.86020 187.25710,40.81908C188.92486,42.67153 192.24514,46.60675 193.36862,48.06250C194.58155,49.63415 196.57566,51.91855 197.54656,52.84863C198.52060,53.78171 198.77202,54.23473 198.49865,54.56412C198.34530,54.74890 191.58991,54.84128 191.14851,54.66464ZM235.14092,54.45445L234.86326,54.15890L234.83056,37.86070C234.81257,28.89669 234.83774,21.34083 234.88650,21.06991C235.02297,20.31163 235.23944,20.21634 236.62500,20.30463C237.27812,20.34626 238.11612,20.32995 238.48722,20.26840C239.70996,20.06560 240.19651,20.42384 240.33208,21.62677C240.46709,22.82473 240.78524,22.90591 242.06109,22.06793C243.98865,20.80190 248.06892,19.82711 251.14353,19.89811C253.37493,19.94963 253.44199,19.99705 253.32045,21.43750C253.27404,21.98750 253.19472,23.10465 253.14418,23.92006C253.02830,25.78986 253.01175,25.80741 251.50000,25.66359C247.64002,25.29635 244.66233,25.92641 242.05163,27.66279C240.38132,28.77372 240.56291,27.09846 240.55986,41.42502C240.55694,55.11991 240.60284,54.32451 239.79783,54.63058C239.05494,54.91302 235.44341,54.77643 235.14092,54.45445ZM259.16904,54.62584C259.02139,54.56626 258.86641,54.46223 258.82465,54.39466C258.65987,54.12804 258.68339,20.95169 258.84856,20.65911C259.11262,20.19139 259.35946,20.14588 262.03892,20.07084L264.62859,19.99832L265.26582,20.43666C265.97285,20.92301 266.33178,20.96924 267.14053,20.67810C269.57769,19.80078 278.57662,19.89392 281.42495,20.82595C284.36573,21.78824 287.16334,24.84253 288.06085,28.07071C288.17428,28.47869 288.41793,29.23438 288.60230,29.75000L288.93750,30.68750L288.91690,42.16779C288.89485,54.46374 288.90785,54.14081 288.42182,54.45927C287.90050,54.80085 283.89192,54.84249 283.48204,54.51059L283.19011,54.27420L283.16989,43.73085C283.14761,32.11111 283.14187,32.01195 282.34685,29.50584C281.12553,25.65596 276.96530,24.67672 267.96491,26.12060C267.09273,26.26052 266.12252,26.37500 265.80889,26.37500C265.37786,26.37500 265.16730,26.44634 264.94645,26.66718L264.65427,26.95937L264.71284,40.01093C264.74505,47.18930 264.77898,53.30788 264.78823,53.60778C264.82034,54.64900 264.54803,54.75148 261.77428,54.74208C260.48905,54.73772 259.31669,54.68541 259.16904,54.62584ZM65.49007,49.11690C68.40639,48.10950 70.08856,46.51070 71.29267,43.60186C71.89661,42.14290 72.33503,38.83010 72.17464,36.93750C72.15133,36.66250 72.07113,35.59375 71.99642,34.56250C71.88322,33.00000 71.80759,32.57292 71.54265,32.00000C71.36779,31.62187 71.11694,31.00555 70.98520,30.63040C69.60459,26.69881 64.58655,24.36113 59.44439,25.25404C57.23529,25.63764 56.49460,25.99216 54.83205,27.46160C51.95403,30.00534 50.69993,34.78345 51.49190,40.18750C51.93387,43.20332 52.31119,44.17059 53.84533,46.22058C56.13470,49.27977 61.29966,50.56442 65.49007,49.11690ZM102.87500,49.19899C105.50820,48.35609 107.12395,47.07131 108.33696,44.85585C109.58010,42.58537 109.88607,40.86199 109.74279,36.93750C109.49244,30.08050 106.83296,26.18888 101.87500,25.42458C96.46150,24.59006 92.20463,26.24792 90.55219,29.83432C90.24096,30.50982 89.81194,31.41687 89.59882,31.84998C89.08857,32.88695 88.95633,34.37125 89.03976,38.12500C89.12393,41.91182 89.34737,42.78754 90.89396,45.39197C92.98572,48.91446 98.39465,50.63317 102.87500,49.19899ZM214.98017,35.07027L223.27284,35.06157L223.51142,34.76694C224.17173,33.95149 223.17266,30.08791 221.83624,28.28869C219.05370,24.54256 211.38146,23.88995 207.96897,27.10912C204.83878,30.06199 203.52253,35.57006 206.04045,35.17937C206.39633,35.12415 210.41920,35.07505 214.98017,35.07027ZM319.59375,34.80932C320.00179,34.34033 319.92152,33.26187 319.29365,30.77764C318.84764,29.01294 317.13169,26.99588 315.28911,26.07041C312.73194,24.78602 307.22057,24.84292 304.94375,26.17723C303.18425,27.20836 301.42723,29.53346 301.12692,31.22809C301.04559,31.68701 300.86383,32.42262 300.72300,32.86277C300.36545,33.98032 300.36624,34.58938 300.72562,34.88040C300.99556,35.09898 301.44425,35.11131 309.46612,35.12061C314.11690,35.12600 317.95367,35.16299 317.99229,35.20281C318.18345,35.39992 319.32365,35.11976 319.59375,34.80932Z"/>
</svg>
